<svg width="24" height="24" viewBox="0 0 24 24" fill="none" xmlns="http://www.w3.org/2000/svg">
<g clip-path="url(#clip0_1_218)">
<path fill-rule="evenodd" clip-rule="evenodd" d="M14.958 7.40981C17.2465 9.8063 17.159 13.6043 14.7626 15.8928C12.3661 18.1814 8.5681 18.0939 6.27954 15.6974C3.99097 13.301 4.07846 9.50298 6.47494 7.21441C8.87142 4.92585 12.6694 5.01333 14.958 7.40981ZM16.8243 16.6039C19.3384 13.5225 19.2219 8.97893 16.4044 6.02854C13.353 2.83323 8.28898 2.71659 5.09367 5.76801C1.89836 8.81943 1.78171 13.8834 4.83313 17.0787C7.65066 20.0291 12.184 20.3547 15.3779 17.9851L17.4925 20.1995C17.874 20.5989 18.507 20.6135 18.9064 20.2321C19.3058 19.8506 19.3204 19.2176 18.9389 18.8182L16.8243 16.6039Z" fill="#B2B2B2"/>
</g>
<defs>
<clipPath id="clip0_1_218">
<rect width="24" height="24" fill="white"/>
</clipPath>
</defs>
</svg>
